<svg width="1238" height="256" viewBox="0 0 1238 256" fill="none" xmlns="http://www.w3.org/2000/svg">
<path d="M189.587 255.919H9.16527C4.11039 255.919 0 251.809 0 246.754V9.1654C0 4.11033 4.11039 -0.000210941 9.16527 -0.000210941H189.587C194.642 -0.000210941 198.758 4.11033 198.758 9.1654V246.754C198.758 251.809 194.642 255.919 189.587 255.919Z" fill="#A5AAA8"/>
<path d="M189.336 3.32674H8.91189C5.68267 3.32674 3.0708 5.94138 3.0708 9.16544V246.754C3.0708 249.978 5.68267 252.59 8.91189 252.59H189.336C192.56 252.59 195.175 249.978 195.175 246.754V9.16544C195.175 5.94138 192.56 3.32674 189.336 3.32674Z" fill="#FBC028"/>
<mask id="mask0_13219_9340" style="mask-type:luminance" maskUnits="userSpaceOnUse" x="3" y="3" width="193" height="250">
<path d="M8.91189 3.60116C5.68267 3.60116 3.0708 6.21843 3.0708 9.43985V247.026C3.0708 250.25 5.68267 252.864 8.91189 252.864H189.334C192.56 252.864 195.175 250.25 195.175 247.026V9.43985C195.175 6.21843 192.56 3.60116 189.334 3.60116H8.91189Z" fill="white"/>
</mask>
<g mask="url(#mask0_13219_9340)">
<path d="M57.6432 32.5623C71.3964 25.2726 91.6872 22.315 114.796 27.8186C120.294 29.1298 136.464 32.995 148.415 35.8893C172.737 41.7675 187.105 55.0041 184.229 66.2039C181.066 78.5065 161.833 89.9939 118.814 83.5247C112.479 82.5696 104.343 81.4377 99.3776 80.8335C94.0827 80.1871 80.8281 79.0263 86.4581 89.8594C109.411 133.983 181.221 269.734 181.221 269.734H77.7546C77.7546 269.734 55.2371 164.456 41.0407 97.6662C36.0439 74.1506 64.7981 58.12 94.2515 58.4604C107.754 58.6213 122.768 60.8402 129.409 61.5552C136.044 62.2701 140.735 61.3256 142.919 58.2467C144.787 55.603 142.365 51.7405 134.564 49.5031C128.984 47.9017 101.552 40.2953 97.9029 39.3402C92.3547 37.8891 86.3236 37.7836 81.3373 40.9918C76.351 44.2001 -55.812 130.337 -55.812 130.337L-80.4849 108.449C-80.4849 108.449 43.5418 40.0394 57.6432 32.5623Z" fill="#A5AAA8"/>
<path d="M59.5557 34.4516C73.148 26.869 91.0643 24.2755 111.666 29.1643C117.17 30.4703 135.139 34.9238 147.101 37.7574C166.025 42.2373 182.606 53.4503 179.076 65.8637C175.428 78.6913 153.084 85.7252 119.006 80.4538C112.672 79.4723 103.868 78.4143 98.8999 77.7943C88.7532 76.5332 75.6095 79.1161 81.8041 91.9754C103.614 137.218 165.743 269.731 165.743 269.731H93.6972C93.6972 269.731 52.0525 116.525 47.4013 97.0252C42.3596 75.8868 66.9929 60.3416 95.9477 61.0593C104.509 61.273 121.647 63.418 128.285 64.1145C137.421 65.0749 145.162 64.2912 147.789 59.938C150.792 54.9647 144.278 49.9783 137.97 47.9705C132.263 46.1553 102.319 38.1188 98.6915 37.0978C92.4626 35.338 83.759 35.8393 78.778 39.0502C73.7891 42.2611 -56.295 124.749 -56.295 124.749L-73.6626 109.212C-73.6626 109.212 45.3593 42.3719 59.5557 34.4516Z" fill="#0E151B"/>
<path d="M39.2202 49.9096C60.3763 38.1637 82.8964 27.6895 116.225 33.4173C141.323 37.7257 159.192 49.0891 154.469 60.31C150.383 70.0139 134.018 73.0585 120.602 72.6627C106.525 72.2459 90.3205 70.8106 78.5882 80.3324C63.6188 92.4767 63.0647 108.302 76.7229 152.304C94.32 208.994 118.022 269.731 118.022 269.731H101.768C101.768 269.731 84.1259 210.68 69.2752 153.459C59.3606 115.238 55.6407 92.3158 75.7705 78.1848C90.9008 67.5681 106.548 70.0692 120.676 70.4254C132.936 70.7341 143.518 68.2092 148.642 62.5816C159.791 50.3423 137.835 38.5094 114.917 34.9186C80.1104 29.4678 60.3579 40.0448 39.4445 52.5506C34.3553 55.5979 -67.7185 115.692 -67.7185 115.692L-70.1694 113.502C-70.1694 113.502 25.0053 57.793 39.2202 49.9096Z" fill="#ED1738"/>
</g>
<path fill-rule="evenodd" clip-rule="evenodd" d="M777.605 35.8575H749.556V102.721H777.605V35.8575Z" fill="white"/>
<path d="M926.487 102.721H847.426C823.598 102.721 817.105 92.152 817.105 75.4618V63.1222C817.105 46.3371 823.413 35.8575 845.851 35.8575H931.608L926.542 45.221H857.491C848.87 45.221 845.622 48.4715 845.622 60.0644V78.8863C845.622 88.1654 849.147 93.3577 858.42 93.3577H931.581L926.487 102.721Z" fill="white"/>
<path d="M519.02 35.3009H444.014C428.712 35.3009 420.001 41.1395 420.001 58.579V102.721H448.053V78.2848H500.708L505.726 69.0084H448.053V58.9483C448.053 53.3841 448.054 49.3025 450.185 47.0758C452.222 44.849 455.005 44.6643 459.274 44.6643H503.794C508.055 44.6643 510.838 44.849 512.875 47.0758C515.012 49.3025 515.012 53.3841 515.012 58.9483L514.986 102.721H543.128V58.579C543.128 41.1395 534.322 35.3009 519.02 35.3009Z" fill="white"/>
<path d="M1065.42 35.3009H990.417C975.115 35.3009 966.403 41.1395 966.403 58.579V102.721H994.456V78.2848H1047.11L1052.13 69.0084H994.456V58.9483C994.456 53.3841 994.456 49.3025 996.588 47.0758C998.624 44.849 1001.41 44.6643 1005.68 44.6643H1050.2C1054.46 44.6643 1057.24 44.849 1059.28 47.0758C1061.41 49.3025 1061.41 53.3841 1061.41 58.9483L1061.39 102.721H1089.53V58.579C1089.53 41.1395 1080.72 35.3009 1065.42 35.3009Z" fill="white"/>
<path d="M675.576 35.8575H586.084V102.721H614.35V45.2263H668.484C678.497 45.2263 681.655 51.9013 681.655 63.6815V75.1821C681.655 86.7724 678.497 93.3603 668.484 93.3603H630.351L625.28 102.721H674.001C699.136 102.721 710.166 92.152 710.166 75.4591V63.1249C710.166 46.3344 700.618 35.8575 675.576 35.8575Z" fill="white"/>
<path d="M355.638 72.768C371.442 72.1718 378.541 67.0191 378.541 54.3102C378.541 41.6065 371.223 35.8575 355.638 35.8575H259.047V102.721H287.11V45.221H339.363C347.296 45.221 349.771 48.9173 349.908 54.3154C349.908 65.9215 340.155 64.5733 325.868 64.5733C312.909 64.5733 319.626 72.8023 325.676 79.9997C331.723 87.1998 344.835 102.721 344.835 102.721H378.541L351.649 72.9105C352.934 72.8683 354.251 72.8234 355.638 72.768Z" fill="white"/>
<path d="M1127.43 35.8575V102.721H1229.68L1234.73 93.3603H1155.48V35.8575H1127.43Z" fill="white"/>
<path d="M1237.42 129.703H259.047V140.257H1232.05L1237.42 129.703Z" fill="white"/>
<path d="M279.992 169.511H292.719L298.652 196.087L313.49 169.511H326.349L326.019 219.233H313.094L314.017 190.613H313.886L297.399 219.233H292.257L285.398 190.613H285.268L276.562 219.233H263.706L279.992 169.511Z" fill="white"/>
<path d="M353.135 193.515C351.749 202.089 357.092 208.353 364.806 208.353C372.52 208.353 379.842 202.089 381.224 193.515C382.279 186.658 376.937 180.392 369.225 180.392C361.508 180.392 354.19 186.658 353.135 193.515ZM394.676 193.451C392.104 209.54 378.786 220.882 362.827 220.882C346.869 220.882 337.11 209.54 339.682 193.451C342.057 178.413 356.891 167.862 371.201 167.862C385.511 167.862 397.051 178.413 394.676 193.451Z" fill="white"/>
<path d="M421.001 219.233H408.076L414.21 180.46H403.528L405.24 169.511H439.529L437.817 180.46H427.135L421.001 219.233Z" fill="white"/>
<path d="M456.026 193.515C454.641 202.089 459.984 208.353 467.698 208.353C475.412 208.353 482.733 202.089 484.116 193.515C485.171 186.658 479.828 180.392 472.114 180.392C464.4 180.392 457.081 186.658 456.026 193.515ZM497.568 193.451C494.996 209.54 481.678 220.882 465.719 220.882C449.76 220.882 440.001 209.54 442.574 193.451C444.948 178.413 459.783 167.862 474.093 167.862C488.403 167.862 499.942 178.413 497.568 193.451Z" fill="white"/>
<path d="M523.365 191.8H524.618C528.839 191.8 533.718 191.008 534.575 185.599C535.432 180.196 530.815 179.402 526.597 179.402H525.344L523.365 191.8ZM547.434 219.23H531.343L522.178 200.108H522.046L519.015 219.23H506.09L513.936 169.511H533.256C543.081 169.511 549.806 174.191 548.159 184.811C547.038 191.668 542.289 197.601 535.037 198.857L547.434 219.23Z" fill="white"/>
<path d="M590.704 182.304C588.593 180.328 585.823 179.009 582.657 179.009C580.285 179.009 576.855 180.391 576.46 183.162C575.998 186.064 579.296 187.185 581.406 187.911L584.57 188.9C591.165 190.942 595.977 194.441 594.658 202.482C593.867 207.429 591.888 212.505 587.406 215.872C582.987 219.167 577.578 220.552 572.568 220.552C566.305 220.552 560.501 218.442 555.953 214.882L563.139 204.461C565.975 207.3 569.405 209.606 573.821 209.606C576.855 209.606 580.349 208.089 580.876 204.593C581.472 200.968 576.592 199.715 573.953 198.923C566.173 196.615 561.16 194.504 562.743 184.879C564.326 174.787 572.568 168.192 582.525 168.192C587.538 168.192 593.405 169.777 597.429 172.281L590.704 182.304Z" fill="white"/>
<path d="M621.97 192.327H624.146C628.829 192.327 633.443 192.327 634.367 186.259C635.353 179.996 631.069 179.93 626.059 179.93H623.882L621.97 192.327ZM612.606 169.511H632.388C643.07 169.511 649.729 174.458 647.882 185.866C646.038 197.601 638.918 202.746 627.639 202.746H620.321L617.682 219.23H604.76L612.606 169.511Z" fill="white"/>
<path d="M669.985 193.515C668.603 202.089 673.943 208.353 681.657 208.353C689.374 208.353 696.692 202.089 698.075 193.515C699.133 186.658 693.79 180.392 686.076 180.392C678.362 180.392 671.041 186.658 669.985 193.515ZM711.527 193.451C708.955 209.54 695.637 220.882 679.681 220.882C663.722 220.882 653.963 209.54 656.533 193.451C658.91 178.413 673.745 167.862 688.055 167.862C702.362 167.862 713.902 178.413 711.527 193.451Z" fill="white"/>
<path d="M737.327 191.8H738.58C742.799 191.8 747.679 191.008 748.534 185.599C749.391 180.196 744.777 179.402 740.559 179.402H739.303L737.327 191.8ZM761.393 219.23H745.302L736.14 200.108H736.008L732.974 219.23H720.049L727.898 169.511H747.218C757.042 169.511 763.767 174.191 762.118 184.811C761 191.668 756.251 197.601 748.998 198.857L761.393 219.23Z" fill="white"/>
<path d="M789.958 219.233H777.035L783.167 180.46H772.484L774.197 169.511H808.486L806.774 180.46H796.089L789.958 219.233Z" fill="white"/>
</svg>
